# xmcd
#
# Track frame offsets:
#	182
#	16382
#	33557
#	52682
#	76607
#	99707
#	109982
#	131207
#	145757
#	158282
#	187757
#	213857
#	226757
#	246107
#	270857
#
# Disc length: 3843 seconds
#
# Revision: 5
# Processed by: cddbd v1.5.2PL0 Copyright (c) Steve Scherf et al.
# Submitted via: EZCDAudioConverter 7.2.1.1
#
DISCID=ae0f010f
DTITLE=Joe Cocker - The Collection (The Collectors Series)
DYEAR=1986
DGENRE=Blues
TTITLE0=I Can Stand a Little Rain
TTITLE1=It's a Sin When You Love Somebody
TTITLE2=Jamaica Say You Will
TTITLE3=Just Like a Woman
TTITLE4=With a Little Help from My Friends
TTITLE5=Lawdy Miss Clawdy
TTITLE6=Darling Be Home Soon
TTITLE7=Pardon Me Sir
TTITLE8=Majorine
TTITLE9=Bird on a Wire (live)
TTITLE10=Feelin' Alright (live)
TTITLE11=She Came in Through the Bathroom Window (live)
TTITLE12=The Letter (live)
TTITLE13=Delta Lady (live)
TTITLE14=Cry Me a River (live)
EXTD=
EXTT0=
EXTT1=
EXTT2=
EXTT3=
EXTT4=
EXTT5=
EXTT6=
EXTT7=
EXTT8=
EXTT9=
EXTT10=
EXTT11=
EXTT12=
EXTT13=
EXTT14=
PLAYORDER=
